<svg xmlns="http://www.w3.org/2000/svg" viewBox="0 0 1200 440" width="1200" height="440"
     role="img" aria-label="Enchanter — real-time MCP observability monitor"
     font-family="ui-monospace, SFMono-Regular, 'SF Mono', Menlo, Consolas, monospace"
     font-size="13">
  <style><![CDATA[
    /* Match the TUI palette one-for-one */
    .bg     { fill: #0d1117; }
    .border { stroke: #44484f; fill: none; stroke-width: 1; }
    .label  { fill: #788087; }
    .body   { fill: #b4b9c3; }
    .amber  { fill: #d29922; font-weight: bold; }
    .red    { fill: #f85149; }
    .green  { fill: #6bb04a; font-weight: bold; }
    .violet { fill: #7c5cdb; font-weight: bold; }
    .pech   { fill: #b36a2e; }
    .emu    { fill: #c9925e; }
    .hydra  { fill: #6bb04a; }
    .sylph  { fill: #4ec8e5; }
    .lich   { fill: #b8bfc5; }
    .naga   { fill: #1f6b4a; }
    .crow   { fill: #e8d27a; }
    .djinn  { fill: #3d5ac4; }
    .gorgon { fill: #c76b7a; }
    .wixie  { fill: #7c5cdb; }

    /* Pure-CSS hover: cards and buttons grow when you point at them.
       Visible when the SVG is opened directly (or via <object>); README's
       <img> tag won't propagate pointer events into the SVG, but the
       click-through to docs/index.html does. */
    .card, .btn { transition: transform 0.18s ease-out; transform-box: fill-box; transform-origin: center; cursor: pointer; }
    .card:hover { transform: scale(1.06); }
    .btn:hover  { transform: scale(1.10); }
    .btn-bg     { fill: #1c1c1e; stroke: #44484f; stroke-width: 1; }
    .btn:hover .btn-bg { stroke: #7c5cdb; }

    /* LIVE blink — 700ms on/off */
    .blink { animation: blink 1.4s steps(2, jump-none) infinite; }
    @keyframes blink { 0%, 49% { opacity: 1; } 50%, 100% { opacity: 0; } }

    /* Active phase pulse */
    .phase-active { animation: pulse 1.6s ease-in-out infinite; }
    @keyframes pulse { 0%, 100% { opacity: 0.6; } 50% { opacity: 1; } }
  ]]></style>

  <!-- Background -->
  <rect class="bg" width="1200" height="440"/>

  <!-- ============================================================
       Outer rounded frame  ╭ Enchanter ─ LIVE … hints ╮
       ============================================================ -->
  <rect x="20" y="24" width="1160" height="392" rx="8" ry="8" class="border"/>

  <!-- Header band: violet Enchanter, dim ─, blinking green LIVE, hints right -->
  <text x="44" y="42" class="violet">Enchanter</text>
  <text x="120" y="42" class="label">─</text>
  <text x="138" y="42" class="green blink">LIVE</text>
  <text x="1156" y="42" text-anchor="end" class="label">q quit · / filter · p pause · S sort · ↑↓ scroll</text>

  <!-- ============================================================
       Golden-signal cards — sharp inner corners, exact 14ch widths
       ============================================================ -->
  <g transform="translate(40, 70)">
    <!-- card 1: turns -->
    <g class="card">
      <rect class="btn-bg" x="0" y="0" width="200" height="56" rx="2"/>
      <text x="14" y="18" class="label">turns</text>
      <text x="100" y="40" text-anchor="middle" class="body">25 ± 3</text>
    </g>
    <!-- card 2: spent -->
    <g class="card" transform="translate(220, 0)">
      <rect class="btn-bg" x="0" y="0" width="200" height="56" rx="2"/>
      <text x="14" y="18" class="label">spent</text>
      <text x="100" y="40" text-anchor="middle" class="body">$0.42</text>
    </g>
    <!-- card 3: security -->
    <g class="card" transform="translate(440, 0)">
      <rect class="btn-bg" x="0" y="0" width="200" height="56" rx="2"/>
      <text x="14" y="18" class="label">security</text>
      <text x="100" y="40" text-anchor="middle" class="body">0</text>
    </g>
    <!-- card 4: drift -->
    <g class="card" transform="translate(660, 0)">
      <rect class="btn-bg" x="0" y="0" width="200" height="56" rx="2"/>
      <text x="14" y="18" class="label">drift</text>
      <text x="100" y="40" text-anchor="middle" class="body">0</text>
    </g>
    <!-- card 5: p99 -->
    <g class="card" transform="translate(880, 0)">
      <rect class="btn-bg" x="0" y="0" width="200" height="56" rx="2"/>
      <text x="14" y="18" class="label">p99</text>
      <text x="100" y="40" text-anchor="middle" class="body">7ms</text>
    </g>
  </g>

  <!-- ============================================================
       Plugins panel  |  Recent events panel
       ============================================================ -->
  <g transform="translate(40, 162)">
    <text x="0"   y="0" class="label">plugins</text>
    <text x="600" y="0" class="label">recent events</text>

    <!-- plugin rows: ·color name spark metric -->
    <g transform="translate(0, 22)">
      <text x="0"   class="pech">●</text><text x="14"  class="pech">pech</text>   <text x="78"  class="pech">▁▂▃▄▅▆</text>      <text x="148" class="body">$0.42</text>
      <text x="0"   y="20" class="emu">●</text><text x="14"  y="20" class="emu">emu</text>     <text x="78"  y="20" class="emu">▁▁▂▄▅▇</text>      <text x="148" y="20" class="body">25 ± 3 turns</text>
      <text x="0"   y="40" class="hydra">●</text><text x="14"  y="40" class="hydra">hydra</text> <text x="78"  y="40" class="hydra">▁▁▁▁▁▂</text>    <text x="148" y="40" class="body">0 vetoes</text>
      <text x="0"   y="60" class="sylph">●</text><text x="14"  y="60" class="sylph">sylph</text> <text x="78"  y="60" class="sylph">▁▁▂▃▄▆</text>    <text x="148" y="60" class="body">clean ✓</text>
      <text x="0"   y="80" class="lich">●</text><text x="14"   y="80" class="lich">lich</text>   <text x="78"  y="80" class="lich">▁▁▁▂▃▄</text>     <text x="148" y="80" class="body">0 clean ✓</text>
      <text x="0"   y="100" class="naga">●</text><text x="14"  y="100" class="naga">naga</text> <text x="78"  y="100" class="naga">▁▁▁▁▂▃</text>     <text x="148" y="100" class="body">clean ✓</text>
      <text x="0"   y="120" class="crow">●</text><text x="14"  y="120" class="crow">crow</text> <text x="78"  y="120" class="crow">▁▂▃▄▅▆</text>     <text x="148" y="120" class="body">0.84 trust</text>
      <text x="0"   y="140" class="djinn">●</text><text x="14" y="140" class="djinn">djinn</text> <text x="78" y="140" class="djinn">▁▁▁▁▁▁</text>  <text x="148" y="140" class="body">on task ✓</text>
      <text x="0"   y="160" class="gorgon">●</text><text x="14" y="160" class="gorgon">gorgon</text> <text x="78" y="160" class="gorgon">▁▂▂▃▄▅</text> <text x="148" y="160" class="body">router.ts (top hotspot)</text>
    </g>

    <!-- events column -->
    <g transform="translate(600, 22)">
      <text x="0"  class="label">36.585</text> <text x="56" class="label">●</text> <text x="68"  class="label">lc.trust-gate</text>  <text x="180" class="body">sampling_depth=0</text>
      <text x="0"  y="20" class="label">36.585</text> <text x="56" y="20" class="label">●</text> <text x="68"  y="20" class="label">lc.pre-disp</text>    <text x="180" y="20" class="body">sampling_depth=0</text>
      <text x="0"  y="40" class="label">36.585</text> <text x="56" y="40" class="label">●</text> <text x="68"  y="40" class="label">lc.dispatch</text>    <text x="180" y="40" class="body">sampling_depth=0</text>
      <text x="0"  y="60" class="label">36.592</text> <text x="56" y="60" class="wixie">●</text> <text x="68"  y="60" class="wixie">tool.result</text>    <text x="180" y="60" class="body">t=list_directory v=fs</text>
      <text x="0"  y="80" class="label">36.593</text> <text x="56" y="80" class="pech">●</text>  <text x="68"  y="80" class="pech">pech.ledger</text>     <text x="180" y="80" class="body">v=fs in=0 out=0</text>
      <text x="0"  y="100" class="label">36.901</text> <text x="56" y="100" class="wixie">●</text> <text x="68" y="100" class="wixie">tool.call</text>    <text x="180" y="100" class="body">t=read_file</text>
      <text x="0"  y="120" class="label">36.901</text> <text x="56" y="120" class="djinn">●</text> <text x="68" y="120" class="djinn">djinn.anchor</text> <text x="180" y="120" class="body">intent=…</text>
      <text x="0"  y="140" class="label">37.012</text> <text x="56" y="140" class="hydra">●</text> <text x="68" y="140" class="hydra">hydra.veto</text>   <text x="180" y="140" class="red">p=h-rm-rf-root</text>
      <text x="0"  y="160" class="label">37.013</text> <text x="56" y="160" class="sylph">●</text> <text x="68" y="160" class="sylph">sylph.veto</text>   <text x="180" y="160" class="red">p=force-push</text>
    </g>
  </g>

  <!-- ============================================================
       Phase bar (one row): ✓anchor ✓trust-gate ●dispatch …
       ============================================================ -->
  <g transform="translate(40, 366)">
    <text x="0" class="label">phase</text>
    <text x="48"  class="green">✓anchor</text>
    <text x="120" class="green">✓trust-gate</text>
    <text x="220" class="green">✓pre-disp</text>
    <text x="306" class="amber phase-active">●dispatch</text>
    <text x="396" class="label">post-resp</text>
    <text x="478" class="label">post-sess</text>
    <text x="560" class="label">cross-sess</text>
  </g>

  <!-- ============================================================
       Action buttons — pure CSS hover-grow, mirrors GH Pages demo
       ============================================================ -->
  <g transform="translate(820, 358)">
    <g class="btn">
      <rect class="btn-bg" x="0" y="0" width="100" height="22" rx="3"/>
      <text x="50" y="15" text-anchor="middle" class="body">Run Demo</text>
    </g>
    <g class="btn" transform="translate(110, 0)">
      <rect class="btn-bg" x="0" y="0" width="100" height="22" rx="3"/>
      <text x="50" y="15" text-anchor="middle" class="body">Stress</text>
    </g>
    <g class="btn" transform="translate(220, 0)">
      <rect class="btn-bg" x="0" y="0" width="100" height="22" rx="3"/>
      <text x="50" y="15" text-anchor="middle" class="body">Red Team</text>
    </g>
  </g>

  <!-- ============================================================
       Footer pill: LIVE · 0 pending · sort: recent · up 1:42
       ============================================================ -->
  <text x="1156" y="406" text-anchor="end">
    <tspan class="green blink">LIVE</tspan>
    <tspan class="label"> · 0 pending · sort: recent · up 1:42</tspan>
  </text>
</svg>
